<svg xmlns="http://www.w3.org/2000/svg" viewBox="0 0 27 31.488"><path data-name="Icon awesome-android" d="M4.05 12.134v8.142a1.927 1.927 0 0 1-1.934 1.948A2.1 2.1 0 0 1 0 20.276v-8.142A2.1 2.1 0 0 1 2.116 10.2a1.942 1.942 0 0 1 1.934 1.934Zm.759 11.039a2.077 2.077 0 0 0 2.082 2.082h1.4l.021 4.3a1.941 1.941 0 0 0 3.881 0v-4.3h2.616v4.3a1.951 1.951 0 0 0 3.9 0v-4.3h1.42a2.074 2.074 0 0 0 2.067-2.081V10.555H4.809v12.618ZM22.25 9.877H4.732a7.9 7.9 0 0 1 4.472-6.989L7.861.406a.271.271 0 1 1 .471-.267l1.364 2.5a9.5 9.5 0 0 1 7.615 0l1.357-2.5a.271.271 0 1 1 .471.267l-1.343 2.482a7.921 7.921 0 0 1 4.454 6.989Zm-12-3.9a.738.738 0 0 0-.738-.738.739.739 0 0 0 0 1.477.738.738 0 0 0 .733-.741Zm7.973 0a.728.728 0 1 0-.717.738.734.734 0 0 0 .712-.74Zm6.666 4.226a1.928 1.928 0 0 0-1.939 1.931v8.142a1.94 1.94 0 0 0 1.934 1.948A2.094 2.094 0 0 0 27 20.276v-8.142a2.082 2.082 0 0 0-2.116-1.934Z" fill="currentColor"/></svg>