<svg xmlns="http://www.w3.org/2000/svg" viewBox="0 0 26.466 31.494"><path data-name="Icon awesome-apple" d="M22.128 16.643a6.564 6.564 0 0 1 3.516-5.962 7.555 7.555 0 0 0-5.955-3.136C17.189 7.345 14.465 9 13.466 9c-1.055 0-3.473-1.385-5.372-1.385C4.17 7.678 0 10.744 0 16.98a17.525 17.525 0 0 0 1.013 5.71c.9 2.58 4.148 8.909 7.538 8.8 1.772-.042 3.023-1.259 5.33-1.259 2.236 0 3.4 1.259 5.372 1.259 3.417-.049 6.356-5.8 7.214-8.388a6.97 6.97 0 0 1-4.338-6.462Zm-3.98-11.545a6.622 6.622 0 0 0 1.688-5.1 7.456 7.456 0 0 0-4.775 2.452 6.726 6.726 0 0 0-1.8 5.055 5.905 5.905 0 0 0 4.887-2.412Z" fill="currentColor"/></svg>