<svg xmlns="http://www.w3.org/2000/svg" viewBox="0 0 20.807 35.817"><defs><clipPath id="a"><path data-name="Path 60" d="M0 0h20.807v-35.817H0Z" fill="currentColor"/></clipPath></defs><g data-name="Group 398"><g data-name="Group 87" clip-path="url(#a)" transform="translate(0 35.817)"><g data-name="Group 86"><path data-name="Path 59" d="M10.433-29.746a20.354 20.354 0 0 0 9.608 5.894l.766-1.355a20.326 20.326 0 0 1-5.482-4.215 27.773 27.773 0 0 1-4.479-6.4h-.885a27.712 27.712 0 0 1-4.479 6.4A20.3 20.3 0 0 1 0-25.207l.766 1.355a20.464 20.464 0 0 0 9.667-5.894" fill="currentColor"/></g></g><path data-name="Path 61" d="M9.411 35.817H11.4V5.981H9.411Z" fill="currentColor"/></g></svg>