<svg data-name="Group 297" xmlns="http://www.w3.org/2000/svg" viewBox="0 0 26.702 26.702"><g data-name="Group 317"><g data-name="Group 318"><g data-name="Group 27"><path data-name="Path 17" d="M13.351 2.406c3.565 0 3.987.014 5.395.078a7.376 7.376 0 0 1 2.478.461 4.11 4.11 0 0 1 1.535 1 4.138 4.138 0 0 1 1 1.535 7.417 7.417 0 0 1 .459 2.479c.064 1.408.078 1.83.078 5.395s-.014 3.987-.078 5.395a7.417 7.417 0 0 1-.459 2.479 4.43 4.43 0 0 1-2.535 2.535 7.417 7.417 0 0 1-2.479.459c-1.408.064-1.83.078-5.395.078s-3.987-.014-5.395-.078a7.417 7.417 0 0 1-2.479-.459 4.128 4.128 0 0 1-1.535-1 4.128 4.128 0 0 1-1-1.535 7.417 7.417 0 0 1-.457-2.483c-.064-1.408-.078-1.83-.078-5.395s.014-3.987.078-5.395a7.417 7.417 0 0 1 .459-2.478 4.138 4.138 0 0 1 .999-1.532 4.11 4.11 0 0 1 1.535-1 7.376 7.376 0 0 1 2.479-.461c1.408-.064 1.83-.078 5.395-.078m0-2.406c-3.626 0-4.081.016-5.5.08A9.813 9.813 0 0 0 4.61.701a6.553 6.553 0 0 0-2.369 1.544 6.552 6.552 0 0 0-1.54 2.364A9.813 9.813 0 0 0 .08 7.845C.016 9.269 0 9.724 0 13.345s.016 4.081.08 5.5a9.813 9.813 0 0 0 .621 3.241 6.552 6.552 0 0 0 1.54 2.364 6.553 6.553 0 0 0 2.364 1.54 9.813 9.813 0 0 0 3.241.621c1.424.064 1.879.08 5.5.08s4.081-.016 5.5-.08a9.813 9.813 0 0 0 3.241-.621 6.832 6.832 0 0 0 3.9-3.9 9.813 9.813 0 0 0 .621-3.241c.064-1.424.08-1.879.08-5.5s-.016-4.081-.08-5.5a9.813 9.813 0 0 0-.621-3.241 6.552 6.552 0 0 0-1.527-2.363A6.552 6.552 0 0 0 22.093.701 9.813 9.813 0 0 0 18.852.08C17.428.016 16.973 0 13.352 0" fill="currentColor"/></g><g data-name="Group 28"><path data-name="Path 18" d="M13.35 6.495a6.855 6.855 0 1 0 6.856 6.855 6.855 6.855 0 0 0-6.856-6.855m0 11.306a4.45 4.45 0 1 1 4.451-4.451 4.451 4.451 0 0 1-4.451 4.451" fill="currentColor"/></g><g data-name="Group 29"><path data-name="Path 19" d="M22.08 6.224a1.6 1.6 0 0 1-1.6 1.6 1.6 1.6 0 0 1-1.6-1.6 1.6 1.6 0 0 1 1.6-1.6 1.6 1.6 0 0 1 1.6 1.6" fill="currentColor"/></g></g></g></svg>