<svg xmlns="http://www.w3.org/2000/svg" viewBox="0 0 27.616 26.395"><defs><clipPath id="a"><path data-name="Path 87" d="M0 26.395h27.616v-26.4H0Z" fill="currentColor"/></clipPath></defs><g data-name="Group 300"><path data-name="Path 84" d="M.351 26.395h5.92V8.585H.351Z" fill="currentColor"/><g data-name="Group 295" clip-path="url(#a)"><g data-name="Group 293"><path data-name="Path 85" d="M3.311 6.154h-.04a3.064 3.064 0 0 1-3.27-3.076 3.092 3.092 0 0 1 3.35-3.079 3.08 3.08 0 0 1 3.31 3.079 3.089 3.089 0 0 1-3.35 3.076" fill="currentColor"/></g><g data-name="Group 294"><path data-name="Path 86" d="M27.614 26.396h-5.917v-9.53c0-2.391-.856-4.025-3-4.025a3.239 3.239 0 0 0-3.035 2.165 4.04 4.04 0 0 0-.2 1.446v9.944H9.543s.077-16.14 0-17.81h5.919v2.523A5.879 5.879 0 0 1 20.8 8.171c3.9 0 6.814 2.545 6.814 8.017Z" fill="currentColor"/></g></g></g></svg>