<svg xmlns="http://www.w3.org/2000/svg" viewBox="0 0 200 204.681"><defs><clipPath id="a"><path data-name="Path 2" d="M0 204.681h200V0H0Z" fill="currentColor"/></clipPath></defs><g data-name="Group 1"><g data-name="Group 3" clip-path="url(#a)"><g data-name="Group 2"><path data-name="Path 1" d="M199.981 97.954a14.817 14.817 0 0 0-2.288-7.556 13.413 13.413 0 0 0-5.647-4.911 16.724 16.724 0 0 0-7.992-1.479 17.993 17.993 0 0 0-7.982 2.058 12.621 12.621 0 0 0-5.125 5.053 13.591 13.591 0 0 0-1.573 7.268 11.278 11.278 0 0 0 1.488 5.448 7.984 7.984 0 0 0 3.47 3.2 9.939 9.939 0 0 0-1.443-.165q-.73-.03-1.477 0l-.914.04.219 4.984 15.491-.682-.567-12.875-4.61.2.347 7.891-.208.009a6.326 6.326 0 0 1-3.616-.86 6.835 6.835 0 0 1-2.51-2.657 8.784 8.784 0 0 1-1.023-3.867 8.59 8.59 0 0 1 1.081-4.75 8.459 8.459 0 0 1 3.578-3.32 13.417 13.417 0 0 1 5.62-1.371 13.2 13.2 0 0 1 5.719.892 8.495 8.495 0 0 1 3.859 3.055 8.81 8.81 0 0 1 1.5 4.678 7.334 7.334 0 0 1-1.248 4.736 5.457 5.457 0 0 1-3.6 2.3l.247 5.607a10.307 10.307 0 0 0 4.963-2.112 10.686 10.686 0 0 0 3.278-4.472 14.987 14.987 0 0 0 .969-6.347m-31.752-17.773 25.7-13.65-2.555-4.81-15.494 8.229q-2.387 1.268-3.777 2.194l13.459-21.364-3.841-7.233-25.7 13.65 2.555 4.81 17.366-9.224q2.129-1.13 3.52-2.058L164.88 73.86Zm-1.349-46.264 3.218-3.307-3.9-3.8-3.218 3.307-17.076 17.55 3.9 3.8 3.218-3.307Zm-11.069-10.726 2.239-4.035-21.737-12.063-2.239 4.035 8.506 4.72-11.881 21.41 4.762 2.643 11.881-21.41Zm-26.26-14.114.843-4.537-24.442-4.54-.843 4.537 9.564 1.776-4.471 24.074 5.354.995 4.471-24.074ZM106.729 175.31l-5.014 1.515 8.418 27.856 8.237-2.489.72-22.193q.031-.618.014-1.177t-.04-1.072a3.336 3.336 0 0 1-.025-.513 23.423 23.423 0 0 0 1.486 2.331l13.168 18 8.317-2.514-8.419-27.856-4.974 1.5 5.664 18.743q.65 2.149 1.322 3.943l-14.945-20.281-6.367 1.924-.774 25.032q-.28-1.218-1.123-4ZM99.522 21.767a17.064 17.064 0 0 0 .669-8.394 16.465 16.465 0 0 0-3.025-7.647 13.687 13.687 0 0 0-5.877-4.585 14.249 14.249 0 0 0-7.536-.836 14.254 14.254 0 0 0-6.968 2.926 13.3 13.3 0 0 0-4.267 6.04 16.851 16.851 0 0 0-.672 8.227 17.19 17.19 0 0 0 3.018 7.875 12.8 12.8 0 0 0 5.776 4.474 14.73 14.73 0 0 0 7.521.733 14.971 14.971 0 0 0 7.042-2.852 12.832 12.832 0 0 0 4.32-5.964m-5.143-1.709a8.18 8.18 0 0 1-2.538 4.066 8.445 8.445 0 0 1-4.346 1.893 8.129 8.129 0 0 1-4.667-.6 8.277 8.277 0 0 1-3.533-3.2 13.932 13.932 0 0 1-1.9-5.522 13.864 13.864 0 0 1 .252-5.771 8.4 8.4 0 0 1 2.467-4.119 8.038 8.038 0 0 1 4.3-1.928 8.147 8.147 0 0 1 4.714.637 8.569 8.569 0 0 1 3.6 3.256 13.54 13.54 0 0 1 1.9 5.416 13.825 13.825 0 0 1-.258 5.877M64.5 36.76l6.057-3.8L55.091 8.31l-4.613 2.895 9.324 14.861q1.437 2.289 2.461 3.609L39.984 17.789l-6.937 4.352 15.466 24.65 4.613-2.894-10.45-16.656q-1.281-2.042-2.306-3.363ZM35.228 49.424l-13.319-9.185-1.719 2.492 8.029 5.538q1.237.853 2.05 1.3L16.279 48.4l-2.585 3.748 13.319 9.185 1.719-2.492-9-6.207q-1.1-.761-1.918-1.21l15.156 1.271Zm-10.6 16.853-14.685-6.79-1.271 2.748 14.686 6.791ZM7.562 80.585l.652-3.075a5.611 5.611 0 0 0-2.9.27 5.175 5.175 0 0 0-2.278 1.773 8.028 8.028 0 0 0-1.365 3.208 8.1 8.1 0 0 0-.063 3.306 5.322 5.322 0 0 0 1.229 2.564 4.168 4.168 0 0 0 2.3 1.314 3.942 3.942 0 0 0 3.209-.6 6.482 6.482 0 0 0 2.207-2.887l1.09-2.58a4.395 4.395 0 0 1 1.2-1.8 1.792 1.792 0 0 1 1.547-.333 1.832 1.832 0 0 1 1.443 1.215 4.392 4.392 0 0 1 .056 2.41 5 5 0 0 1-.8 1.875 3.632 3.632 0 0 1-1.44 1.219 3.338 3.338 0 0 1-1.943.25l-.652 3.075a6.7 6.7 0 0 0 3.295-.33 5.618 5.618 0 0 0 2.54-1.954 8.722 8.722 0 0 0 1.479-3.467 8.222 8.222 0 0 0 .066-3.542 5.032 5.032 0 0 0-1.354-2.531 4.923 4.923 0 0 0-2.49-1.3 4.009 4.009 0 0 0-3.264.572 6.467 6.467 0 0 0-2.193 2.879l-1.085 2.558a6.242 6.242 0 0 1-1.116 1.866 1.441 1.441 0 0 1-1.417.385 1.67 1.67 0 0 1-1.013-.628 2.479 2.479 0 0 1-.469-1.245 5.036 5.036 0 0 1 .1-1.633 4.41 4.41 0 0 1 .757-1.789 2.639 2.639 0 0 1 1.212-.924 3 3 0 0 1 1.468-.126M2.69 95.033l-2.261-.129-.165 2.884 2.261.129 3.994-.212.116-2.031Zm-.13 7.771-2.56.178.956 13.789 2.559-.178-.374-5.4 13.581-.942-.21-3.021-13.581.942Zm15.736 17.053-15.7 3.91.732 2.938 15.7-3.91Zm117.808 45.674 28.614 13.093 4.557-4.257-11.116-29.439-4.253 3.973 3.278 7.8-9.063 8.466-7.551-3.812Zm16.406 1.855 6.579-6.146 3.741 8.907.491 1.134.434 1.074q.217.536.493 1.076-1.444-.814-2.136-1.19-.492-.223-.983-.5Zm7.174-25.884 26.707 11.559 2.163-5-10.911-4.723 5.334-12.323 10.911 4.723 2.163-5-26.706-11.558-2.163 5 11.56 5-5.334 12.323-11.56-5Z" fill="currentColor"/></g></g></g></svg>