<svg xmlns="http://www.w3.org/2000/svg" viewBox="0 0 407.807 17.441"><g data-name="Group 430" fill="none" stroke="currentColor" stroke-width="3"><path data-name="Path 1184" d="M16.379 1.061 1.061 16.381"/><path data-name="Path 1185" d="m31.395 1.061-15.318 15.32"/><path data-name="Path 1186" d="M46.408 1.061 31.09 16.381"/><path data-name="Path 1187" d="m61.422 1.061-15.318 15.32"/><path data-name="Path 1188" d="m76.436 1.061-15.318 15.32"/><path data-name="Path 1189" d="m91.449 1.061-15.318 15.32"/><path data-name="Path 1190" d="m106.465 1.061-15.318 15.32"/><path data-name="Path 1191" d="m121.479 1.061-15.318 15.32"/><path data-name="Path 1192" d="m136.492 1.061-15.318 15.32"/><path data-name="Path 1193" d="m151.506 1.061-15.318 15.32"/><path data-name="Path 1194" d="m166.522 1.061-15.318 15.32"/><path data-name="Path 1195" d="m181.535 1.061-15.318 15.32"/><path data-name="Path 1196" d="m196.549 1.061-15.318 15.32"/><path data-name="Path 1197" d="m211.563 1.061-15.318 15.32"/><path data-name="Path 1198" d="m226.576 1.061-15.318 15.32"/><path data-name="Path 1199" d="m241.592 1.061-15.318 15.32"/><path data-name="Path 1200" d="m256.606 1.061-15.318 15.32"/><path data-name="Path 1201" d="m271.619 1.061-15.318 15.32"/><path data-name="Path 1202" d="m286.633 1.061-15.318 15.32"/><path data-name="Path 1203" d="m301.649 1.061-15.318 15.32"/><path data-name="Path 1204" d="m316.662 1.061-15.318 15.32"/><path data-name="Path 1205" d="m331.676 1.061-15.318 15.32"/><path data-name="Path 1206" d="m346.69 1.061-15.318 15.32"/><path data-name="Path 1207" d="m361.703 1.061-15.318 15.32"/><path data-name="Path 1208" d="m376.719 1.061-15.318 15.32"/><path data-name="Path 1209" d="m391.733 1.061-15.318 15.32"/><path data-name="Path 1210" d="m406.746 1.061-15.318 15.32"/></g></svg>