<svg xmlns="http://www.w3.org/2000/svg" viewBox="0 0 652.734 11.351"><defs><clipPath id="a"><path data-name="Rectangle 85" fill="currentColor" stroke="currentColor" d="M0 0h652.734v11.351H0z"/></clipPath></defs><g data-name="Group 325"><g data-name="Group 201" clip-path="url(#a)"><path data-name="Path 80" d="M7.159 0a1.369 1.369 0 0 0-1.331 1.043l-.075.3-.272.157c-.117.067-.238.138-.363.212C2.683 3.145-.641 5.1.108 7.593c.544 1.817 2.5 3.755 18.883 3.755 5.2 0 11.719-.2 19.37-.6 108.47-5.648 248.1-7.164 366.66-7.164 135.929 0 244.181 1.991 246.2 2.029h.028a1.49 1.49 0 0 0 1.488-1.46 1.492 1.492 0 0 0-1.461-1.517C643.063 2.488 537.026.622 405.1.622c-118.8 0-258.582 1.513-366.9 7.155-8.17.424-14.477.592-19.339.592-8.729 0-12.8-.54-14.673-1.112l-1.42-.435 1.214-.862a31.109 31.109 0 0 1 2.644-1.684c2.06-1.21 2.869-1.825 2.539-3.034C9.011.676 8.537 0 7.159 0" fill="currentColor" stroke="currentColor"/></g></g></svg>