<svg data-name="Group 299" xmlns="http://www.w3.org/2000/svg" viewBox="0 0 29.452 23.936"><defs><clipPath id="a"><path data-name="Rectangle 111" fill="currentColor" d="M0 0h29.452v23.936H0z"/></clipPath></defs><g data-name="Group 292" clip-path="url(#a)"><path data-name="Path 83" d="M29.452 2.834a12.1 12.1 0 0 1-3.47.951A6.058 6.058 0 0 0 28.638.441 12.062 12.062 0 0 1 24.8 1.907a6.045 6.045 0 0 0-10.45 4.137 6.17 6.17 0 0 0 .156 1.375A17.159 17.159 0 0 1 2.051 1.105a6.052 6.052 0 0 0 1.87 8.068 6.028 6.028 0 0 1-2.737-.756v.079a6.046 6.046 0 0 0 4.847 5.925 6.134 6.134 0 0 1-2.729.1 6.046 6.046 0 0 0 5.645 4.195 12.126 12.126 0 0 1-7.505 2.59A12.313 12.313 0 0 1 0 21.222a17.088 17.088 0 0 0 9.261 2.714c11.116 0 17.193-9.207 17.193-17.192 0-.259-.007-.521-.018-.781a12.283 12.283 0 0 0 3.013-3.126Z" fill="currentColor"/></g></svg>