<svg xmlns="http://www.w3.org/2000/svg" viewBox="0 0 560.289 17.315">
  <defs>
    <clipPath id="a">
      <path fill="none" d="M0 17.315h560.289V-.004H0Z" data-name="Path 1183"/>
    </clipPath>
  </defs>
  <g data-name="Group 429">
    <g clip-path="url(#a)" data-name="Group 428">
      <g data-name="Group 427">
        <path fill="none" stroke="currentColor" stroke-linejoin="round" stroke-miterlimit="120" stroke-width="3" d="M0 1.883c8.489 0 8.489 13.55 16.978 13.55s8.489-13.55 16.978-13.55 8.489 13.55 16.978 13.55 8.489-13.55 16.978-13.55 8.488 13.55 16.978 13.55 8.489-13.55 16.978-13.55 8.489 13.55 16.978 13.55 8.489-13.55 16.935-13.55 8.445 13.55 16.934 13.55 8.485-13.55 16.978-13.55 8.488 13.55 16.978 13.55 8.488-13.55 16.978-13.55 8.489 13.55 16.978 13.55 8.489-13.55 16.978-13.55 8.489 13.55 16.978 13.55 8.489-13.55 17.011-13.55 8.523 13.55 17.012 13.55 8.489-13.55 16.978-13.55 8.489 13.55 16.978 13.55 8.489-13.55 16.978-13.55 8.489 13.55 16.978 13.55 8.489-13.55 16.982-13.55 8.489 13.55 16.978 13.55 8.485-13.55 16.992-13.55 8.506 13.55 16.995 13.55 8.489-13.55 16.978-13.55 8.489 13.55 16.978 13.55 8.489-13.55 16.979-13.55 8.489 13.55 16.979 13.55 8.487-13.55 16.976-13.55 8.488 13.55 16.978 13.55 8.489-13.55 16.978-13.55 8.489 13.55 16.978 13.55" data-name="Path 1182"/>
      </g>
    </g>
  </g>
</svg>
