<svg xmlns="http://www.w3.org/2000/svg" viewBox="0 0 811.304 21.86"><defs><clipPath id="a"><path data-name="Path 1248" d="M0 21.86h811.3V0H0Z" fill="none"/></clipPath></defs><g data-name="Group 520"><g data-name="Group 519" clip-path="url(#a)"><g data-name="Group 518"><path data-name="Path 1247" d="M1.602 3.227 16.985 18.61l15-15.383L47.368 18.61 62.752 3.227l15 15.383L93.134 3.227l15.385 15.383 14.999-15.383 15.384 15.383 15.383-15.383 15 15.383 15.382-15.383L200.05 18.61l15-15.383 15.383 15.383 15.384-15.383 15 15.383 15.385-15.383 15.383 15.383 15.381-15.383 15 15.383 15.01-15.383 15.383 15.383 15.384-15.383 14.97 15.383 14.97-15.383 15.383 15.383L428.45 3.227l15 15.383 15.382-15.383 15.383 15.383 15-15.383 15.387 15.383 15.38-15.383 15 15.383 15.382-15.383 15.383 15.383 15-15.383L596.13 18.61l15.385-15.383 15 15.383 15.387-15.383 15.383 15.383 15.379-15.383 15.005 15.383 15.005-15.383 15.383 15.383 15.384-15.383 15.055 15.383 15.438-15.383 15 15.383 15.383-15.383 15.385 15.385" fill="none" stroke="currentColor" stroke-miterlimit="120" stroke-width="4"/></g></g></g></svg>