<svg xmlns="http://www.w3.org/2000/svg" viewBox="0 0 1519.962 29.772">
  <defs>
    <clipPath id="a">
      <path fill="none" d="M0 29.772h1519.962V0H0Z" data-name="Path 1258"/>
    </clipPath>
  </defs>
  <g data-name="Group 562">
    <g clip-path="url(#a)" data-name="Group 561">
      <g data-name="Group 560">
        <path fill="none" stroke="currentColor" stroke-miterlimit="120" stroke-width="5" d="m2.182 4.398 20.949 20.949L43.557 4.398l20.949 20.949L85.454 4.398l20.428 20.949 20.947-20.949 20.953 20.949 20.423-20.949 20.949 20.949 20.949-20.949 20.423 20.949 20.95-20.949 20.949 20.949 20.426-20.949L313.8 25.347l20.949-20.949 20.426 20.949 20.949-20.949 20.949 20.949 20.948-20.949 20.434 20.949 20.433-20.949 20.949 20.949 20.945-20.949 20.39 20.949 20.386-20.949 20.949 20.949 20.948-20.949 20.427 20.949L624.83 4.398l20.952 20.949 20.423-20.949 20.949 20.949 20.949-20.949 20.424 20.949 20.949-20.949 20.949 20.949L790.85 4.398l20.949 20.949L832.75 4.398l20.426 20.949 20.949-20.949 20.949 20.949 20.948-20.949 20.434 20.949 20.433-20.949 20.949 20.949 20.949-20.949 20.5 20.949 21.025-20.949 20.426 20.949 20.944-20.949 20.846 20.947 20.326-20.947 20.949 20.949 20.949-20.949 20.43 20.949 20.944-20.949 20.949 20.949 20.426-20.949 20.949 20.949 20.949-20.949 20.424 20.949 20.949-20.949 20.949 20.949 20.426-20.949 20.949 20.949 20.95-20.949 20.426 20.949 20.949-20.949 20.949 20.949 20.949-20.949 20.434 20.949" data-name="Path 1257"/>
      </g>
    </g>
  </g>
</svg>
